<?xml version="1.0" standalone="no"?>
<!DOCTYPE svg PUBLIC "-//W3C//DTD SVG 20010904//EN"
 "http://www.w3.org/TR/2001/REC-SVG-20010904/DTD/svg10.dtd">
<svg version="1.0" xmlns="http://www.w3.org/2000/svg"
 width="256.000000pt" height="256.000000pt" viewBox="0 0 256.000000 256.000000"
 preserveAspectRatio="xMidYMid meet">

<g transform="translate(0.000000,256.000000) scale(0.100000,-0.100000)"
fill="#000000" stroke="none">
<path d="M926 1974 c-9 -8 -16 -21 -16 -29 0 -23 -86 -110 -137 -137 -26 -14
-66 -29 -88 -33 -75 -12 -84 -15 -90 -35 -3 -10 -1 -29 5 -41 11 -20 18 -21
79 -17 52 4 83 13 131 39 118 62 217 189 191 245 -12 28 -51 32 -75 8z"/>
<path d="M1559 1966 c-26 -56 73 -183 191 -245 48 -26 79 -35 131 -39 61 -4
68 -3 79 17 6 12 8 31 5 41 -6 20 -15 23 -90 35 -22 4 -62 19 -88 33 -51 27
-137 114 -137 137 0 44 -73 61 -91 21z"/>
<path d="M700 1628 c-37 -14 -73 -40 -111 -78 -47 -47 -61 -68 -79 -126 -51
-163 23 -330 179 -406 69 -34 196 -32 271 3 80 37 125 81 162 157 28 57 33 76
33 142 0 66 -5 85 -33 142 -78 160 -256 229 -422 166z m108 -72 c90 -47 103
-158 27 -225 -65 -57 -172 -35 -208 42 -22 45 -21 84 1 126 33 62 119 89 180
57z m286 -148 c21 -30 20 -50 -5 -82 -23 -29 -54 -33 -87 -10 -26 18 -30 74
-6 98 24 24 80 20 98 -6z m-122 -135 c37 -33 14 -103 -34 -103 -54 0 -79 74
-36 104 29 20 47 20 70 -1z"/>
<path d="M1630 1635 c-64 -21 -140 -82 -176 -143 -102 -169 -35 -387 145 -471
46 -21 70 -26 136 -26 71 0 88 4 147 33 100 49 157 125 177 238 26 142 -47
287 -176 350 -68 34 -183 42 -253 19z m108 -94 c85 -60 70 -191 -25 -233 -52
-23 -97 -19 -137 13 -58 46 -72 122 -33 180 45 69 131 86 195 40z m262 -133
c25 -28 26 -62 0 -88 -41 -41 -110 -14 -110 43 0 62 68 90 110 45z m-112 -140
c7 -7 12 -26 12 -43 0 -17 -5 -36 -12 -43 -17 -17 -64 -15 -82 4 -19 18 -21
65 -4 82 16 16 70 16 86 0z"/>
<path d="M1190 825 c-51 -26 -135 -111 -150 -150 -14 -37 3 -65 39 -65 22 0
35 9 57 42 41 59 99 98 144 98 45 0 103 -39 144 -98 22 -33 35 -42 57 -42 36
0 53 28 39 65 -15 40 -100 125 -152 151 -60 31 -119 30 -178 -1z"/>
</g>
</svg>
